<?xml version="1.0" standalone="no"?>
<!DOCTYPE svg PUBLIC "-//W3C//DTD SVG 20010904//EN"
 "http://www.w3.org/TR/2001/REC-SVG-20010904/DTD/svg10.dtd">
<svg version="1.0" xmlns="http://www.w3.org/2000/svg"
 width="816.000000pt" height="816.000000pt" viewBox="0 0 816.000000 816.000000"
 preserveAspectRatio="xMidYMid meet">
<metadata>
Created by potrace 1.14, written by Peter Selinger 2001-2017
</metadata>
<g transform="translate(0.000000,816.000000) scale(0.100000,-0.100000)"
fill="#000000" stroke="none">
<path d="M3968 7235 c-2 -1 -43 -5 -93 -8 -49 -4 -101 -9 -115 -11 -13 -3 -42
-8 -65 -11 -185 -27 -482 -136 -680 -250 -211 -122 -469 -349 -600 -530 -11
-15 -34 -46 -51 -69 -69 -92 -170 -277 -226 -411 -21 -51 -75 -214 -82 -246
-54 -255 -52 -243 -62 -349 -7 -74 -7 -316 0 -375 13 -110 19 -151 37 -240 21
-99 77 -288 106 -355 130 -295 257 -486 459 -688 62 -61 117 -112 121 -111 8
0 345 432 351 450 2 4 -18 28 -43 51 -142 131 -286 348 -359 542 -23 60 -63
194 -71 234 -5 31 -15 96 -21 142 -7 56 -7 303 0 327 3 10 8 43 11 73 4 30 9
58 11 61 2 3 6 21 9 40 3 19 22 81 41 138 128 380 404 694 761 866 84 40 239
97 300 110 94 20 123 25 193 32 116 12 333 6 415 -12 11 -3 32 -7 46 -9 41 -7
168 -44 229 -67 132 -50 304 -150 418 -242 65 -53 212 -210 264 -283 133 -187
236 -440 264 -649 3 -27 8 -59 10 -70 7 -32 5 -275 -2 -325 -5 -41 -25 -146
-40 -210 -27 -122 -137 -360 -218 -473 -144 -201 -332 -366 -531 -468 -55 -28
-103 -53 -107 -55 -3 -2 -3 -19 2 -37 5 -17 14 -51 20 -74 l11 -43 393 0 393
0 86 90 c207 218 367 478 461 749 36 104 70 226 80 291 3 19 8 46 10 59 3 13
8 49 11 80 3 31 8 67 11 80 6 29 6 325 0 361 -3 14 -7 51 -11 83 -37 341 -187
707 -413 1007 -127 168 -369 385 -557 500 -164 101 -420 211 -544 235 -11 2
-25 6 -29 9 -4 2 -27 7 -52 11 -25 4 -47 8 -51 10 -5 4 -77 16 -179 30 -44 7
-316 15 -322 10z"/>
<path d="M3881 6088 c-185 -38 -330 -112 -467 -240 -256 -240 -357 -600 -264
-937 146 -523 696 -817 1208 -645 340 114 581 403 638 766 20 129 -2 324 -52
457 -163 433 -617 689 -1063 599z"/>
<path d="M3319 3873 c-260 -336 -810 -1045 -860 -1108 -26 -33 -84 -107 -128
-165 -45 -58 -99 -127 -120 -155 -22 -27 -177 -228 -346 -445 -168 -217 -316
-408 -329 -425 -13 -16 -128 -165 -256 -330 -128 -165 -236 -305 -241 -310 -6
-8 919 -11 3041 -11 1678 0 3050 2 3050 5 0 2 -18 68 -39 145 -21 78 -73 269
-116 426 -42 157 -88 327 -102 378 l-26 92 -1013 0 c-956 0 -1013 1 -1017 18
-30 115 -53 198 -68 252 -10 35 -16 66 -13 69 2 3 457 5 1009 5 692 0 1005 3
1005 11 0 5 -14 62 -31 125 -74 271 -130 477 -178 660 -29 107 -56 202 -60
210 -7 13 -130 15 -1015 15 l-1006 0 -10 30 c-9 31 -69 253 -115 430 -45 173
-41 165 -77 153 -63 -22 -366 -14 -457 12 -17 5 -31 7 -31 5 0 -6 -162 51
-223 79 -32 14 -62 26 -67 26 -5 0 -77 -89 -161 -197z m371 -1208 c23 -88 51
-191 61 -230 74 -273 119 -441 119 -450 0 -7 -154 -10 -449 -10 -308 -1 -448
3 -443 10 11 19 579 752 597 771 5 6 21 27 35 47 14 20 28 33 31 29 4 -4 26
-79 49 -167z"/>
</g>
</svg>
